<svg width="181" height="209" viewBox="0 0 181 209" fill="none" xmlns="http://www.w3.org/2000/svg">
<g clip-path="url(#clip0)">
<path d="M52.0837 90.6171C51.7861 90.6171 51.5876 90.6171 51.3892 90.4197C44.6431 81.5373 42.9566 66.2398 42.5598 60.4169C42.4606 59.2819 41.1709 58.6897 40.1788 59.2325C19.3454 70.829 0 98.3645 0 124.913C0 170.657 31.8951 209 86.8061 209C138.245 209 173.612 169.522 173.612 124.962C173.612 66.6839 131.796 28.0948 94.5443 10.626C93.5522 10.1325 92.4609 10.9714 92.5601 12.0077C97.4213 43.4416 90.7744 77.5402 52.0341 90.7158L52.0837 90.6171Z" fill="url(#paint0_radial)"/>
<path fill-rule="evenodd" clip-rule="evenodd" d="M108.944 134.775C104.281 134.806 100.722 134.289 97.7934 138.046L88.4664 149.706L86.023 146.585L94.7691 135.653C97.6626 131.943 96.3082 128.552 95.25 124.036C94.2188 119.659 96.566 117.855 98.2898 116.064L116.017 129.931C114.685 132.108 113.577 134.744 108.944 134.775V134.775ZM106.755 182.578C106.278 182.952 104.943 183.384 104.054 182.247L72.425 142.227L65.3489 147.764C53.8209 127.982 44.4746 105.795 44.1899 99.5562L107.09 179.873C107.744 180.713 107.594 181.923 106.755 182.578V182.578ZM62.4207 182.216C61.7666 183.052 60.5545 183.199 59.7042 182.536C58.8654 181.873 58.7307 180.679 59.3848 179.839L78.4544 156.056L80.9132 159.154L62.4207 182.216V182.216ZM130.261 106.847L118.091 126.675L114.031 123.489L128.237 105.263L125.205 102.889L110.991 121.111L107.948 118.73L122.173 100.516L119.137 98.146L104.908 116.353L100.995 113.289L117.013 96.4929L114.262 94.3274C114.262 94.3274 100.479 108.18 93.7032 115.285C91.333 117.774 90.7174 121.562 91.5062 124.918C92.572 129.454 93.3723 131.184 91.737 133.28L83.5836 143.479C66.5725 121.797 48.0838 98.2577 46.0753 95.7261C45.3788 94.8476 44.4284 94.4006 43.4857 94.4006C40.3152 94.4006 40.6422 98.0689 40.6422 98.1729C40.6422 107.479 52.1279 133.592 64.2792 153.479L71.7554 147.625L75.9957 152.962L56.3527 177.469C54.3904 179.981 54.8175 183.599 57.3378 185.572C58.3998 186.401 59.658 186.805 60.9047 186.805C62.6208 186.805 64.3177 186.042 65.4528 184.586L83.3681 162.245L101.026 184.617C102.103 186.004 103.546 186.678 104.993 186.805C106.505 186.94 108.021 186.482 109.125 185.615C111.638 183.649 112.084 180.016 110.122 177.5C106.424 172.756 99.2479 163.451 90.9097 152.816L100.825 140.416C102.488 138.285 104.312 138.655 108.971 138.628C112.465 138.605 116.109 137.102 117.952 134.131C123.139 125.751 132.951 108.95 132.951 108.95L130.261 106.847V106.847Z" fill="#9E0C57"/>
</g>
<defs>
<radialGradient id="paint0_radial" cx="0" cy="0" r="1" gradientUnits="userSpaceOnUse" gradientTransform="translate(86.8061 209) scale(173.612 198.519)">
<stop stop-color="#FF7854"/>
<stop offset="1" stop-color="#FD267D"/>
</radialGradient>
<clipPath id="clip0">
<rect width="181" height="209" fill="white"/>
</clipPath>
</defs>
</svg>
